<svg width="146" height="147" viewBox="0 0 146 147" fill="none" xmlns="http://www.w3.org/2000/svg">
<ellipse cx="73" cy="73.4966" rx="73" ry="73.4966" fill="white"/>
<path d="M104.167 108.125V100.208C104.167 96.0091 102.499 91.9818 99.5292 89.0125C96.5599 86.0432 92.5326 84.375 88.3333 84.375H56.6667C52.4674 84.375 48.4401 86.0432 45.4708 89.0125C42.5015 91.9818 40.8333 96.0091 40.8333 100.208V108.125" stroke="#BEBEBE" stroke-width="6" stroke-linecap="round" stroke-linejoin="round"/>
<path d="M72.5 68.5417C81.2445 68.5417 88.3333 61.4528 88.3333 52.7083C88.3333 43.9638 81.2445 36.875 72.5 36.875C63.7555 36.875 56.6667 43.9638 56.6667 52.7083C56.6667 61.4528 63.7555 68.5417 72.5 68.5417Z" stroke="#BEBEBE" stroke-width="6" stroke-linecap="round" stroke-linejoin="round"/>
</svg>
