<svg width="146" height="146" viewBox="0 0 146 146" fill="none" xmlns="http://www.w3.org/2000/svg">
<circle cx="73" cy="73" r="73" fill="#F5F6F7"/>
<path d="M112.083 100.208C112.083 102.308 111.249 104.322 109.765 105.806C108.28 107.291 106.266 108.125 104.167 108.125H40.8334C38.7337 108.125 36.7201 107.291 35.2354 105.806C33.7508 104.322 32.9167 102.308 32.9167 100.208V44.7917C32.9167 42.692 33.7508 40.6784 35.2354 39.1937C36.7201 37.7091 38.7337 36.875 40.8334 36.875H60.625L68.5417 48.75H104.167C106.266 48.75 108.28 49.5841 109.765 51.0687C111.249 52.5534 112.083 54.567 112.083 56.6667V100.208Z" stroke="#BEBEBE" stroke-width="6" stroke-linecap="round" stroke-linejoin="round"/>
</svg>
