<svg width="146" height="146" viewBox="0 0 146 146" fill="none" xmlns="http://www.w3.org/2000/svg">
<circle cx="73" cy="73" r="73" fill="#F5F6F7"/>
<path d="M107.492 43.2478C105.47 41.2251 103.069 39.6206 100.427 38.5259C97.7854 37.4311 94.9536 36.8677 92.0938 36.8677C89.2339 36.8677 86.4021 37.4311 83.7601 38.5259C81.118 39.6206 78.7176 41.2251 76.6958 43.2478L72.5 47.4437L68.3042 43.2478C64.2204 39.164 58.6816 36.8698 52.9063 36.8698C47.1309 36.8698 41.5921 39.164 37.5083 43.2478C33.4246 47.3316 31.1303 52.8704 31.1303 58.6457C31.1303 64.4211 33.4246 69.9599 37.5083 74.0437L41.7042 78.2395L72.5 109.035L103.296 78.2395L107.492 74.0437C109.514 72.0219 111.119 69.6215 112.214 66.9794C113.308 64.3374 113.872 61.5056 113.872 58.6457C113.872 55.7859 113.308 52.9541 112.214 50.312C111.119 47.67 109.514 45.2696 107.492 43.2478Z" stroke="#BEBEBE" stroke-width="6" stroke-linecap="round" stroke-linejoin="round"/>
</svg>
