<svg width="146" height="146" viewBox="0 0 146 146" fill="none" xmlns="http://www.w3.org/2000/svg">
<circle cx="73" cy="73" r="73" fill="#F5F6F7"/>
<path d="M100.208 36.875H44.7917C40.4194 36.875 36.875 40.4194 36.875 44.7917V100.208C36.875 104.581 40.4194 108.125 44.7917 108.125H100.208C104.581 108.125 108.125 104.581 108.125 100.208V44.7917C108.125 40.4194 104.581 36.875 100.208 36.875Z" stroke="#BEBEBE" stroke-width="6" stroke-linecap="round" stroke-linejoin="round"/>
<path d="M58.6458 64.5835C61.925 64.5835 64.5833 61.9252 64.5833 58.646C64.5833 55.3668 61.925 52.7085 58.6458 52.7085C55.3667 52.7085 52.7083 55.3668 52.7083 58.646C52.7083 61.9252 55.3667 64.5835 58.6458 64.5835Z" stroke="#BEBEBE" stroke-width="6" stroke-linecap="round" stroke-linejoin="round"/>
<path d="M108.125 84.3752L88.3333 64.5835L44.7917 108.125" stroke="#BEBEBE" stroke-width="6" stroke-linecap="round" stroke-linejoin="round"/>
</svg>
